# xmcd CD database file
#
# Track frame offsets:
#	183
#	15183
#	44020
#	61808
#
# Disc length: 1192 seconds
#
# Revision: 1
# Processed by: cddbd v1.5.2PL0 Copyright (c) Steve Scherf et al.
# Submitted via: CDex 1.51
#
DISCID=2704a604
DTITLE=Elli Medeiros - BOM BOM
DYEAR=1987
DGENRE=French Pop
TTITLE0=Bom Bom
TTITLE1=Toi mon Toi (Long version)
TTITLE2=Flat Man
TTITLE3=Bom Bom (Long version)
EXTD=YEAR: 1987
EXTT0=
EXTT1=
EXTT2=
EXTT3=
PLAYORDER=
